<svg width="758" height="954" viewBox="0 0 758 954" fill="none" xmlns="http://www.w3.org/2000/svg">
<path d="M460.705 795.557C476.761 782.933 504.633 744.932 511.649 723.311C528.695 670.779 499.928 614.375 447.396 597.329C402.975 582.915 361.316 588.112 313.983 594.017C260.975 600.629 200.852 608.13 121.77 589.967L98.0823 616.809C95.4559 644.342 147.319 763.15 361.85 818.044C403.061 828.589 437.272 818.599 460.705 795.557Z" fill="#1B9C94"/>
<path d="M487.961 750.153C470.915 802.685 424.462 834.065 361.85 818.044C147.319 763.15 95.456 644.342 98.0823 616.809C247.779 651.19 329.541 593.615 423.708 624.171C476.24 641.217 505.007 697.621 487.961 750.153Z" fill="#006B64"/>
<path d="M254.61 210.166C250.305 218.018 246.909 226.758 244.471 236.366C230.889 289.898 263.274 344.306 316.806 357.888C365.926 370.351 415.484 362.47 469.842 353.825C521.676 345.582 577.875 336.644 642.219 343.992L669.571 318.237C604.706 236.371 446.227 138.068 393.237 134.638C364.176 132.757 339.411 137.128 319.728 147.396C296.435 159.547 267.21 187.186 254.61 210.166Z" fill="#84E5DF"/>
<path d="M244.471 236.366C258.053 182.834 301.39 156.218 365.885 160.393C418.874 163.823 577.354 262.126 642.218 343.992C510.398 328.94 412.765 382.236 316.806 357.889C263.274 344.306 230.888 289.899 244.471 236.366Z" fill="#44C6BD"/>
<path d="M227.983 367.944C233.559 372.794 255.903 394.144 275.917 401.084C323.595 417.616 373.459 416.675 428.152 415.643L428.154 415.643C438.729 415.444 449.61 414.833 460.734 414.209C499.663 412.026 541.552 409.676 583.617 424.19C603.599 455.59 607.858 522.889 573.544 549.635C558.79 561.135 542.869 571.102 528.06 583.049L514.515 590.781C467.706 555.638 429.788 555.955 381.228 556.361C373.034 556.429 364.538 556.5 355.645 556.404C302.465 555.827 202.141 545.462 172.881 524.223C139.319 475.509 182.285 401.615 182.285 401.615C182.285 401.615 208.563 373.47 227.983 367.944Z" fill="#44C6BD"/>
<path d="M230.219 434.756C210.205 427.816 193.826 416.029 182.284 401.615C182.284 401.615 139.319 475.509 172.881 524.223C202.141 545.462 302.465 555.827 355.645 556.404C417.246 557.071 459.808 549.708 514.515 590.781C562.929 572.435 560.188 492.856 537.919 457.862C483.835 439.201 430.041 448.417 382.456 449.315L382.454 449.315C327.761 450.347 277.897 451.288 230.219 434.756Z" fill="#1B9C93"/>
<g filter="url(#filter0_d_303_101)">
<path d="M460.705 795.557C476.76 782.933 504.633 744.932 511.649 723.311C528.695 670.779 499.927 614.375 447.395 597.329C402.975 582.915 361.315 588.112 313.983 594.017C260.975 600.629 200.852 608.13 121.77 589.967L98.0821 616.809C95.4558 644.342 147.319 763.15 361.85 818.044C403.061 828.589 437.272 818.599 460.705 795.557Z" fill="url(#paint0_linear_303_101)"/>
<path d="M487.961 750.153C470.915 802.685 424.462 834.065 361.85 818.044C147.319 763.15 95.456 644.342 98.0823 616.809C247.779 651.19 329.541 593.615 423.708 624.171C476.24 641.217 505.007 697.621 487.961 750.153Z" fill="url(#paint1_linear_303_101)"/>
</g>
<g filter="url(#filter1_d_303_101)">
<path d="M254.61 210.166C250.305 218.018 246.909 226.759 244.471 236.366C230.888 289.899 263.274 344.306 316.806 357.889C365.926 370.352 415.484 362.47 469.842 353.825C521.676 345.582 577.874 336.645 642.218 343.992L669.571 318.238C604.706 236.372 446.226 138.069 393.237 134.639C364.176 132.757 339.411 137.128 319.728 147.396C296.435 159.547 267.21 187.186 254.61 210.166Z" fill="url(#paint2_linear_303_101)"/>
<path d="M244.471 236.367C258.053 182.834 301.39 156.218 365.885 160.393C418.874 163.823 577.354 262.126 642.218 343.992C510.398 328.94 412.765 382.236 316.806 357.889C263.274 344.306 230.888 289.899 244.471 236.367Z" fill="url(#paint3_linear_303_101)"/>
</g>
<g filter="url(#filter2_d_303_101)">
<path d="M227.983 367.944C233.559 372.794 255.903 394.144 275.917 401.084C323.595 417.616 373.459 416.675 428.152 415.643L428.154 415.643C438.729 415.444 449.61 414.833 460.734 414.209C499.663 412.026 541.552 409.676 583.617 424.19C603.599 455.59 607.858 522.889 573.544 549.635C558.79 561.135 542.869 571.102 528.06 583.049L514.515 590.781C467.706 555.638 429.788 555.955 381.228 556.361C373.034 556.429 364.538 556.5 355.645 556.404C302.465 555.827 202.141 545.462 172.881 524.223C139.319 475.509 182.285 401.615 182.285 401.615C182.285 401.615 208.563 373.47 227.983 367.944Z" fill="url(#paint4_linear_303_101)"/>
<path d="M230.219 434.756C210.205 427.816 193.826 416.029 182.284 401.615C182.284 401.615 139.319 475.509 172.881 524.223C202.141 545.462 302.465 555.827 355.645 556.404C417.246 557.071 459.808 549.708 514.515 590.781C562.929 572.435 560.188 492.856 537.919 457.862C483.835 439.201 430.041 448.417 382.456 449.315L382.454 449.315C327.761 450.347 277.897 451.288 230.219 434.756Z" fill="url(#paint5_linear_303_101)"/>
</g>
<defs>
<filter id="filter0_d_303_101" x="93.9886" y="588.037" width="426.569" height="242.205" filterUnits="userSpaceOnUse" color-interpolation-filters="sRGB">
<feFlood flood-opacity="0" result="BackgroundImageFix"/>
<feColorMatrix in="SourceAlpha" type="matrix" values="0 0 0 0 0 0 0 0 0 0 0 0 0 0 0 0 0 0 127 0" result="hardAlpha"/>
<feOffset dy="4"/>
<feGaussianBlur stdDeviation="2"/>
<feComposite in2="hardAlpha" operator="out"/>
<feColorMatrix type="matrix" values="0 0 0 0 0 0 0 0 0 0 0 0 0 0 0 0 0 0 0.25 0"/>
<feBlend mode="normal" in2="BackgroundImageFix" result="effect1_dropShadow_303_101"/>
<feBlend mode="normal" in="SourceGraphic" in2="effect1_dropShadow_303_101" result="shape"/>
</filter>
<filter id="filter1_d_303_101" x="237.376" y="134.213" width="436.195" height="238.147" filterUnits="userSpaceOnUse" color-interpolation-filters="sRGB">
<feFlood flood-opacity="0" result="BackgroundImageFix"/>
<feColorMatrix in="SourceAlpha" type="matrix" values="0 0 0 0 0 0 0 0 0 0 0 0 0 0 0 0 0 0 127 0" result="hardAlpha"/>
<feOffset dy="4"/>
<feGaussianBlur stdDeviation="2"/>
<feComposite in2="hardAlpha" operator="out"/>
<feColorMatrix type="matrix" values="0 0 0 0 0 0 0 0 0 0 0 0 0 0 0 0 0 0 0.25 0"/>
<feBlend mode="normal" in2="BackgroundImageFix" result="effect1_dropShadow_303_101"/>
<feBlend mode="normal" in="SourceGraphic" in2="effect1_dropShadow_303_101" result="shape"/>
</filter>
<filter id="filter2_d_303_101" x="156.065" y="367.944" width="446.935" height="230.838" filterUnits="userSpaceOnUse" color-interpolation-filters="sRGB">
<feFlood flood-opacity="0" result="BackgroundImageFix"/>
<feColorMatrix in="SourceAlpha" type="matrix" values="0 0 0 0 0 0 0 0 0 0 0 0 0 0 0 0 0 0 127 0" result="hardAlpha"/>
<feOffset dy="4"/>
<feGaussianBlur stdDeviation="2"/>
<feComposite in2="hardAlpha" operator="out"/>
<feColorMatrix type="matrix" values="0 0 0 0 0 0 0 0 0 0 0 0 0 0 0 0 0 0 0.25 0"/>
<feBlend mode="normal" in2="BackgroundImageFix" result="effect1_dropShadow_303_101"/>
<feBlend mode="normal" in="SourceGraphic" in2="effect1_dropShadow_303_101" result="shape"/>
</filter>
<linearGradient id="paint0_linear_303_101" x1="303.327" y1="763.645" x2="492.259" y2="628.437" gradientUnits="userSpaceOnUse">
<stop stop-color="#1B9C94"/>
<stop offset="1" stop-color="#20D6CA"/>
</linearGradient>
<linearGradient id="paint1_linear_303_101" x1="275.454" y1="747.894" x2="348.736" y2="659.861" gradientUnits="userSpaceOnUse">
<stop stop-color="#007A72"/>
<stop offset="1" stop-color="#007A72" stop-opacity="0.55"/>
</linearGradient>
<linearGradient id="paint2_linear_303_101" x1="347.282" y1="313.69" x2="519.668" y2="224.777" gradientUnits="userSpaceOnUse">
<stop stop-color="#84E5DF"/>
<stop offset="1" stop-color="#BFEDE9"/>
</linearGradient>
<linearGradient id="paint3_linear_303_101" x1="441.8" y1="297.087" x2="516.265" y2="189.183" gradientUnits="userSpaceOnUse">
<stop stop-color="#44C6BD"/>
<stop offset="1" stop-color="#44C6BD" stop-opacity="0"/>
</linearGradient>
<linearGradient id="paint4_linear_303_101" x1="327.918" y1="534.709" x2="509.31" y2="429.574" gradientUnits="userSpaceOnUse">
<stop stop-color="#44C6BD"/>
<stop offset="1" stop-color="#59CEC6"/>
</linearGradient>
<linearGradient id="paint5_linear_303_101" x1="319.077" y1="548.387" x2="374.29" y2="460.171" gradientUnits="userSpaceOnUse">
<stop stop-color="#1B9C93"/>
<stop offset="1" stop-color="#1B9C93" stop-opacity="0.51"/>
</linearGradient>
</defs>
</svg>
